<svg width="108" height="29" viewBox="0 0 108 29" fill="none" xmlns="http://www.w3.org/2000/svg">
<path fill-rule="evenodd" clip-rule="evenodd" d="M12.3314 28.3889L12.353 28.3766L12.3747 28.3889L18.5173 24.8659L24.7061 21.3183V7.12548L21.9233 8.72099L20.299 9.73937L16.7505 11.7962V15.0428L21.9233 12.0584V17.2248L21.9231 17.225L21.881 19.6674L12.353 25.1304L2.82517 19.6674L2.78301 17.225L2.78288 17.2248V8.72099L2.80439 8.70868L2.82517 8.72099L12.353 3.25841L19.0711 7.11006L21.9233 5.47476L12.3742 0L12.353 0.01218L12.3319 0L0 7.07034V21.3183L6.18877 24.8659L12.3314 28.3889Z" fill="#3B495C"/>
<path fill-rule="evenodd" clip-rule="evenodd" d="M5.04205 10.139L8.04878 11.9278V16.6245L12.353 19.1801L16.6573 16.6245V15.7892L19.664 14.0038V18.4716L12.353 22.8126L5.04205 18.4716V10.139Z" fill="#3B495C"/>
<path fill-rule="evenodd" clip-rule="evenodd" d="M40.3158 21.2917H36.8671L31.462 6.93499H35.3343L38.6419 17.1145H38.7225L42.01 6.93499H45.8217L40.3158 21.2917ZM59.4353 20.4197C58.7361 20.7847 57.9193 21.0821 56.9849 21.312C56.0504 21.5418 55.0319 21.6567 53.9294 21.6567C52.7865 21.6567 51.7344 21.4742 50.773 21.1092C49.8117 20.7442 48.9848 20.2305 48.2924 19.5681C47.5999 18.9057 47.0587 18.1115 46.6688 17.1854C46.2789 16.2594 46.0839 15.2286 46.0839 14.0931C46.0839 12.944 46.2823 11.9031 46.6789 10.9703C47.0755 10.0375 47.6234 9.24329 48.3226 8.58763C49.0218 7.93198 49.8419 7.42842 50.7831 7.07694C51.7243 6.72545 52.7394 6.54971 53.8285 6.54971C54.958 6.54971 56.0067 6.72207 56.9748 7.0668C57.9428 7.41152 58.7294 7.87453 59.3344 8.45583L57.1563 10.95C56.8201 10.558 56.3764 10.2369 55.8252 9.9868C55.2739 9.73671 54.6487 9.61166 53.9495 9.61166C53.3445 9.61166 52.7865 9.72319 52.2756 9.94625C51.7646 10.1693 51.3209 10.4802 50.9445 10.879C50.568 11.2778 50.2756 11.751 50.0672 12.2985C49.8587 12.846 49.7545 13.4442 49.7545 14.0931C49.7545 14.7555 49.8487 15.3638 50.0369 15.9181C50.2251 16.4723 50.5041 16.9489 50.8739 17.3477C51.2436 17.7465 51.7008 18.0574 52.2453 18.2804C52.7899 18.5035 53.4117 18.615 54.1109 18.615C54.5142 18.615 54.8974 18.5846 55.2605 18.5238C55.6235 18.4629 55.9596 18.3649 56.2689 18.2297V15.6139H53.5462V12.8156H59.4353V20.4197ZM69.8018 10.6661C69.506 10.2876 69.1194 9.9868 68.6421 9.76375C68.1648 9.54069 67.7043 9.42916 67.2606 9.42916C67.032 9.42916 66.8001 9.44944 66.5648 9.49C66.3295 9.53055 66.1177 9.60828 65.9295 9.72319C65.7412 9.8381 65.5832 9.9868 65.4555 10.1693C65.3278 10.3518 65.2639 10.585 65.2639 10.8689C65.2639 11.1122 65.3143 11.315 65.4152 11.4772C65.516 11.6394 65.6639 11.7814 65.8589 11.9031C66.0538 12.0247 66.2858 12.1363 66.5547 12.2376C66.8236 12.339 67.1261 12.4438 67.4622 12.5519C67.9463 12.7142 68.4505 12.8933 68.9749 13.0893C69.4992 13.2853 69.9765 13.5456 70.4068 13.87C70.8371 14.1945 71.1934 14.5966 71.4757 15.0765C71.7581 15.5564 71.8992 16.1546 71.8992 16.8711C71.8992 17.6958 71.748 18.4089 71.4455 19.0104C71.1429 19.612 70.7362 20.1088 70.2253 20.5009C69.7144 20.8929 69.1295 21.1835 68.4707 21.3728C67.8118 21.5621 67.1328 21.6567 66.4337 21.6567C65.4118 21.6567 64.4236 21.4776 63.4689 21.1193C62.5143 20.7611 61.721 20.2508 61.0891 19.5883L63.3479 17.2767C63.6975 17.7093 64.158 18.0709 64.7294 18.3615C65.3009 18.6522 65.8689 18.7975 66.4337 18.7975C66.6891 18.7975 66.9379 18.7705 67.1799 18.7164C67.4219 18.6623 67.6337 18.5745 67.8152 18.4528C67.9967 18.3311 68.1412 18.1689 68.2488 17.9661C68.3564 17.7633 68.4101 17.52 68.4101 17.2361C68.4101 16.9658 68.3429 16.7359 68.2085 16.5467C68.074 16.3574 67.8824 16.1851 67.6337 16.0296C67.3849 15.8741 67.0757 15.7322 66.7059 15.6038C66.3362 15.4753 65.916 15.3368 65.4454 15.1881C64.9883 15.0394 64.5412 14.8636 64.1042 14.6608C63.6673 14.4581 63.2773 14.1978 62.9345 13.8801C62.5916 13.5625 62.316 13.1772 62.1076 12.7243C61.8992 12.2714 61.795 11.7206 61.795 11.0717C61.795 10.2741 61.9563 9.59139 62.279 9.02361C62.6017 8.45583 63.0252 7.98944 63.5496 7.62444C64.074 7.25943 64.6656 6.99245 65.3244 6.82346C65.9832 6.65448 66.6488 6.56999 67.3211 6.56999C68.1278 6.56999 68.9513 6.71869 69.7917 7.0161C70.632 7.31351 71.3681 7.75286 72.0001 8.33416L69.8018 10.6661Z" fill="#3B495C"/>
<path d="M79.396 22.072C80.344 22.072 81.088 21.628 81.508 20.92H81.52V22H82.456V13.168H81.484V17.2H81.472C81.028 16.492 80.272 16.084 79.384 16.084C77.74 16.084 76.528 17.392 76.528 19.12C76.528 20.896 77.776 22.072 79.396 22.072ZM79.528 21.184C78.34 21.184 77.524 20.296 77.524 19.12C77.524 17.824 78.424 16.972 79.54 16.972C80.716 16.972 81.52 17.92 81.52 19.12C81.52 20.356 80.632 21.184 79.528 21.184ZM89.4674 18.976C89.4674 17.308 88.3754 16.084 86.7794 16.084C85.1114 16.084 83.8994 17.32 83.8994 19.084C83.8994 20.872 85.1234 22.072 86.8514 22.072C88.0274 22.072 88.7594 21.628 89.2634 20.98L88.5794 20.404C88.2194 20.848 87.6674 21.184 86.8874 21.184C85.7834 21.184 85.0154 20.464 84.8834 19.372H89.4434C89.4434 19.3 89.4674 19.132 89.4674 18.976ZM86.7674 16.972C87.7274 16.972 88.3514 17.62 88.4954 18.58H84.9074C85.0874 17.584 85.8314 16.972 86.7674 16.972ZM90.8925 22H91.8645V19.096C91.8645 17.788 92.5845 16.972 93.5445 16.972C94.4205 16.972 94.9005 17.656 94.9005 18.904V22H95.8725V19.096C95.8725 17.788 96.6045 16.972 97.5165 16.972C98.4045 16.972 98.8485 17.656 98.8485 18.904V22H99.8205V18.64C99.8205 16.972 99.1005 16.084 97.8045 16.084C96.8925 16.084 96.1005 16.54 95.6565 17.332H95.6445C95.3445 16.528 94.7085 16.084 93.8325 16.084C93.0525 16.084 92.3205 16.504 91.8765 17.212H91.8645V16.156H90.8925V22ZM104.162 22.072C105.89 22.072 107.174 20.86 107.174 19.084C107.174 17.308 105.89 16.084 104.162 16.084C102.35 16.084 101.138 17.404 101.138 19.084C101.138 20.764 102.35 22.072 104.162 22.072ZM104.162 21.184C102.95 21.184 102.134 20.248 102.134 19.084C102.134 17.92 102.938 16.972 104.162 16.972C105.29 16.972 106.178 17.836 106.178 19.084C106.178 20.332 105.278 21.184 104.162 21.184Z" fill="#5D6A7A"/>
</svg>
